<svg width="40" height="40" viewBox="0 0 40 40" fill="none" xmlns="http://www.w3.org/2000/svg">
    <rect width="40" height="40" rx="20" fill="#E8471C"/>
    <g clip-path="url(#clip0_597_641)">
        <path d="M11.5846 27.9162C12.0096 27.5565 12.4509 27.2388 12.9004 26.9614C12.9942 26.9037 12.9583 26.7581 12.849 26.7515C12.5088 26.7317 12.1629 26.7284 11.8122 26.7416C11.6825 26.7465 11.5732 26.6436 11.5732 26.5119V25.879C11.5732 23.3932 13.5709 21.3774 16.0344 21.3774H23.9485C25.3695 21.3774 26.6347 22.0474 27.4513 23.0911C28.5345 22.9824 29.493 22.631 30.4572 21.8836C29.816 20.7386 28.851 19.8028 27.6878 19.2019C28.8828 16.5737 30.9556 11.672 30.9091 9.38626C30.8487 6.4461 28.4815 5.29703 27.2025 5.09043C25.9348 4.81633 23.3163 5.02458 22.207 7.74332C21.3031 9.95832 21.5397 15.7012 21.7175 18.4668H18.2662C18.444 15.7004 18.6806 9.95832 17.7768 7.74332C16.6666 5.02376 14.0481 4.81633 12.7804 5.09043C11.5006 5.29703 9.13334 6.4461 9.07379 9.38626C9.0273 11.672 11.1009 16.5753 12.2959 19.2035C10.1416 20.3164 8.66675 22.5766 8.66675 25.1859V28.2808C8.66675 29.1525 8.83152 29.9855 9.1309 30.7502C9.8471 29.6217 10.6824 28.6767 11.5846 27.9162ZM24.168 8.55738C24.5065 7.8388 24.9551 7.38362 25.6575 7.21818C26.2122 7.0873 26.7089 7.17373 26.7742 7.18608L26.7946 7.19266L26.8492 7.20007C26.9015 7.20995 27.4039 7.30872 27.8811 7.63714C28.4766 8.04788 28.7735 8.63393 28.7899 9.42906C28.8021 10.0102 28.5786 11.579 26.9479 15.5538C26.483 16.6881 26.0131 17.7474 25.6509 18.5409C25.4013 18.4775 24.9763 18.4668 24.9763 18.4668C24.9763 18.4668 27.364 11.7947 26.7032 10.5954C25.8891 9.11792 23.8384 9.68834 23.8384 9.68834C23.8384 9.68834 23.9298 9.0636 24.1688 8.55656L24.168 8.55738ZM15.4683 18.4668C15.4683 18.4668 15.6086 11.3362 14.4233 10.2876C12.7993 8.93603 11.3081 10.3295 11.3081 10.3295C11.2134 9.85379 11.1906 9.62661 11.1939 9.42988C11.2102 8.63475 11.5071 8.04788 12.1026 7.63796C12.5724 7.31366 13.0668 7.21324 13.132 7.20089H13.1532L13.2063 7.1869C13.2576 7.17702 13.7618 7.08566 14.3254 7.21818C15.0278 7.38362 15.5148 7.82152 15.8149 8.55738C16.0344 9.09488 16.3876 10.639 16.293 14.9398C16.2628 16.2979 16.1943 17.5738 16.1372 18.4668H15.4683Z"
              fill="white"/>
        <path d="M30.852 22.7168C30.1357 23.8453 29.3004 24.7902 28.3982 25.5508C27.9733 25.9105 27.5319 26.2282 27.0825 26.5056C26.9887 26.5632 27.0246 26.7097 27.1339 26.7155C27.474 26.7352 27.8199 26.7385 28.1707 26.7254C28.3004 26.7204 28.4097 26.8233 28.4097 26.955V27.588C28.4097 30.0738 26.412 32.0896 23.9485 32.0896H16.0343C14.6133 32.0896 13.3481 31.4196 12.5316 30.3759C11.4483 30.4845 10.4898 30.836 9.52563 31.5834C10.6685 33.623 12.8375 35.0001 15.3254 35.0001H24.6573C28.3346 35.0001 31.3161 31.9916 31.3161 28.281V25.1861C31.3161 24.3145 31.1513 23.4815 30.852 22.7168Z"
              fill="white"/>
        <path d="M16.2814 28.8177C17.1744 28.8177 17.8982 27.8846 17.8982 26.7335C17.8982 25.5825 17.1744 24.6494 16.2814 24.6494C15.3885 24.6494 14.6647 25.5825 14.6647 26.7335C14.6647 27.8846 15.3885 28.8177 16.2814 28.8177Z"
              fill="white"/>
        <path d="M23.7021 28.8177C24.595 28.8177 25.3189 27.8846 25.3189 26.7335C25.3189 25.5825 24.595 24.6494 23.7021 24.6494C22.8092 24.6494 22.0853 25.5825 22.0853 26.7335C22.0853 27.8846 22.8092 28.8177 23.7021 28.8177Z"
              fill="white"/>
    </g>
    <defs>
        <clipPath id="clip0_597_641">
            <rect width="22.6494" height="30" fill="white" transform="translate(8.66675 5)"/>
        </clipPath>
    </defs>
</svg>
